<mxfile host="app.diagrams.net" agent="Mozilla/5.0 (Windows NT 10.0; Win64; x64) AppleWebKit/537.36 (KHTML, like Gecko) Chrome/140.0.0.0 Safari/537.36" version="28.2.4">
  <diagram name="Page-1" id="YjLgYZ7UmxfBC-FGfZVu">
    <mxGraphModel dx="2714" dy="916" grid="1" gridSize="10" guides="1" tooltips="1" connect="1" arrows="1" fold="1" page="1" pageScale="1" pageWidth="850" pageHeight="1100" math="0" shadow="0">
      <root>
        <mxCell id="0" />
        <mxCell id="1" parent="0" />
        <mxCell id="3WN5ByAHuHc43FGSWOnV-3" style="edgeStyle=orthogonalEdgeStyle;rounded=0;orthogonalLoop=1;jettySize=auto;html=1;exitX=0.5;exitY=1;exitDx=0;exitDy=0;entryX=0.5;entryY=0;entryDx=0;entryDy=0;" edge="1" parent="1" source="3WN5ByAHuHc43FGSWOnV-1" target="3WN5ByAHuHc43FGSWOnV-2">
          <mxGeometry relative="1" as="geometry" />
        </mxCell>
        <mxCell id="3WN5ByAHuHc43FGSWOnV-1" value="Start" style="ellipse;whiteSpace=wrap;html=1;" vertex="1" parent="1">
          <mxGeometry x="140" y="40" width="120" height="80" as="geometry" />
        </mxCell>
        <mxCell id="3WN5ByAHuHc43FGSWOnV-5" style="edgeStyle=orthogonalEdgeStyle;rounded=0;orthogonalLoop=1;jettySize=auto;html=1;exitX=0.5;exitY=1;exitDx=0;exitDy=0;entryX=0.5;entryY=0;entryDx=0;entryDy=0;" edge="1" parent="1" source="3WN5ByAHuHc43FGSWOnV-2" target="3WN5ByAHuHc43FGSWOnV-4">
          <mxGeometry relative="1" as="geometry" />
        </mxCell>
        <mxCell id="3WN5ByAHuHc43FGSWOnV-2" value="Login" style="rounded=1;whiteSpace=wrap;html=1;" vertex="1" parent="1">
          <mxGeometry x="140" y="170" width="120" height="60" as="geometry" />
        </mxCell>
        <mxCell id="3WN5ByAHuHc43FGSWOnV-7" style="edgeStyle=orthogonalEdgeStyle;rounded=0;orthogonalLoop=1;jettySize=auto;html=1;exitX=0.5;exitY=1;exitDx=0;exitDy=0;entryX=0.5;entryY=0;entryDx=0;entryDy=0;" edge="1" parent="1" source="3WN5ByAHuHc43FGSWOnV-4" target="3WN5ByAHuHc43FGSWOnV-6">
          <mxGeometry relative="1" as="geometry" />
        </mxCell>
        <mxCell id="3WN5ByAHuHc43FGSWOnV-4" value="Masukkan Email &amp;amp; Password" style="shape=parallelogram;perimeter=parallelogramPerimeter;whiteSpace=wrap;html=1;fixedSize=1;" vertex="1" parent="1">
          <mxGeometry x="130" y="290" width="140" height="60" as="geometry" />
        </mxCell>
        <mxCell id="3WN5ByAHuHc43FGSWOnV-9" style="edgeStyle=orthogonalEdgeStyle;rounded=0;orthogonalLoop=1;jettySize=auto;html=1;exitX=1;exitY=0.5;exitDx=0;exitDy=0;" edge="1" parent="1" source="3WN5ByAHuHc43FGSWOnV-6" target="3WN5ByAHuHc43FGSWOnV-8">
          <mxGeometry relative="1" as="geometry" />
        </mxCell>
        <mxCell id="3WN5ByAHuHc43FGSWOnV-16" style="edgeStyle=orthogonalEdgeStyle;rounded=0;orthogonalLoop=1;jettySize=auto;html=1;exitX=0.5;exitY=1;exitDx=0;exitDy=0;entryX=0.5;entryY=0;entryDx=0;entryDy=0;" edge="1" parent="1" source="3WN5ByAHuHc43FGSWOnV-6" target="3WN5ByAHuHc43FGSWOnV-14">
          <mxGeometry relative="1" as="geometry" />
        </mxCell>
        <mxCell id="3WN5ByAHuHc43FGSWOnV-6" value="Apakah Email ada?" style="rhombus;whiteSpace=wrap;html=1;" vertex="1" parent="1">
          <mxGeometry x="147.5" y="425" width="105" height="110" as="geometry" />
        </mxCell>
        <mxCell id="3WN5ByAHuHc43FGSWOnV-11" style="edgeStyle=orthogonalEdgeStyle;rounded=0;orthogonalLoop=1;jettySize=auto;html=1;exitX=1;exitY=0.5;exitDx=0;exitDy=0;entryX=0;entryY=0.5;entryDx=0;entryDy=0;" edge="1" parent="1" source="3WN5ByAHuHc43FGSWOnV-8" target="3WN5ByAHuHc43FGSWOnV-10">
          <mxGeometry relative="1" as="geometry" />
        </mxCell>
        <mxCell id="3WN5ByAHuHc43FGSWOnV-8" value="Tidak" style="shape=parallelogram;perimeter=parallelogramPerimeter;whiteSpace=wrap;html=1;fixedSize=1;" vertex="1" parent="1">
          <mxGeometry x="300" y="450" width="120" height="60" as="geometry" />
        </mxCell>
        <mxCell id="3WN5ByAHuHc43FGSWOnV-12" style="edgeStyle=orthogonalEdgeStyle;rounded=0;orthogonalLoop=1;jettySize=auto;html=1;exitX=1;exitY=0.5;exitDx=0;exitDy=0;entryX=1;entryY=0.5;entryDx=0;entryDy=0;" edge="1" parent="1" source="3WN5ByAHuHc43FGSWOnV-10" target="3WN5ByAHuHc43FGSWOnV-4">
          <mxGeometry relative="1" as="geometry">
            <mxPoint x="640" y="320" as="targetPoint" />
            <Array as="points">
              <mxPoint x="620" y="480" />
              <mxPoint x="620" y="320" />
            </Array>
          </mxGeometry>
        </mxCell>
        <mxCell id="3WN5ByAHuHc43FGSWOnV-10" value="Buat Akun" style="rounded=1;whiteSpace=wrap;html=1;" vertex="1" parent="1">
          <mxGeometry x="480" y="450" width="120" height="60" as="geometry" />
        </mxCell>
        <mxCell id="3WN5ByAHuHc43FGSWOnV-18" style="edgeStyle=orthogonalEdgeStyle;rounded=0;orthogonalLoop=1;jettySize=auto;html=1;exitX=1;exitY=0.5;exitDx=0;exitDy=0;entryX=0;entryY=0.5;entryDx=0;entryDy=0;" edge="1" parent="1" source="3WN5ByAHuHc43FGSWOnV-14" target="3WN5ByAHuHc43FGSWOnV-17">
          <mxGeometry relative="1" as="geometry" />
        </mxCell>
        <mxCell id="3WN5ByAHuHc43FGSWOnV-23" style="edgeStyle=orthogonalEdgeStyle;rounded=0;orthogonalLoop=1;jettySize=auto;html=1;exitX=0.5;exitY=1;exitDx=0;exitDy=0;entryX=0.5;entryY=0;entryDx=0;entryDy=0;" edge="1" parent="1" source="3WN5ByAHuHc43FGSWOnV-14" target="3WN5ByAHuHc43FGSWOnV-22">
          <mxGeometry relative="1" as="geometry" />
        </mxCell>
        <mxCell id="3WN5ByAHuHc43FGSWOnV-14" value="Apakah Email &amp;amp; Password ada?" style="rhombus;whiteSpace=wrap;html=1;" vertex="1" parent="1">
          <mxGeometry x="147.5" y="580" width="105" height="110" as="geometry" />
        </mxCell>
        <mxCell id="3WN5ByAHuHc43FGSWOnV-17" value="Tidak" style="shape=parallelogram;perimeter=parallelogramPerimeter;whiteSpace=wrap;html=1;fixedSize=1;" vertex="1" parent="1">
          <mxGeometry x="300" y="605" width="120" height="60" as="geometry" />
        </mxCell>
        <mxCell id="3WN5ByAHuHc43FGSWOnV-20" value="" style="endArrow=none;html=1;rounded=0;exitX=1;exitY=0.5;exitDx=0;exitDy=0;" edge="1" parent="1" source="3WN5ByAHuHc43FGSWOnV-17">
          <mxGeometry width="50" height="50" relative="1" as="geometry">
            <mxPoint x="490" y="640" as="sourcePoint" />
            <mxPoint x="620" y="480" as="targetPoint" />
            <Array as="points">
              <mxPoint x="620" y="635" />
            </Array>
          </mxGeometry>
        </mxCell>
        <mxCell id="3WN5ByAHuHc43FGSWOnV-25" style="edgeStyle=orthogonalEdgeStyle;rounded=0;orthogonalLoop=1;jettySize=auto;html=1;exitX=1;exitY=0.5;exitDx=0;exitDy=0;entryX=0.5;entryY=0;entryDx=0;entryDy=0;" edge="1" parent="1" source="3WN5ByAHuHc43FGSWOnV-22" target="3WN5ByAHuHc43FGSWOnV-28">
          <mxGeometry relative="1" as="geometry">
            <mxPoint x="600" y="960" as="targetPoint" />
            <mxPoint x="272.5" y="800" as="sourcePoint" />
          </mxGeometry>
        </mxCell>
        <mxCell id="3WN5ByAHuHc43FGSWOnV-26" value="YA" style="edgeLabel;html=1;align=center;verticalAlign=middle;resizable=0;points=[];" vertex="1" connectable="0" parent="3WN5ByAHuHc43FGSWOnV-25">
          <mxGeometry x="-0.2981" y="2" relative="1" as="geometry">
            <mxPoint as="offset" />
          </mxGeometry>
        </mxCell>
        <mxCell id="3WN5ByAHuHc43FGSWOnV-40" style="edgeStyle=orthogonalEdgeStyle;rounded=0;orthogonalLoop=1;jettySize=auto;html=1;exitX=0;exitY=0.5;exitDx=0;exitDy=0;entryX=1;entryY=0.5;entryDx=0;entryDy=0;" edge="1" parent="1" source="3WN5ByAHuHc43FGSWOnV-22" target="3WN5ByAHuHc43FGSWOnV-44">
          <mxGeometry relative="1" as="geometry">
            <mxPoint x="-70" y="795" as="targetPoint" />
          </mxGeometry>
        </mxCell>
        <mxCell id="3WN5ByAHuHc43FGSWOnV-41" value="YA" style="edgeLabel;html=1;align=center;verticalAlign=middle;resizable=0;points=[];" vertex="1" connectable="0" parent="3WN5ByAHuHc43FGSWOnV-40">
          <mxGeometry x="-0.0526" y="-1" relative="1" as="geometry">
            <mxPoint x="1" as="offset" />
          </mxGeometry>
        </mxCell>
        <mxCell id="3WN5ByAHuHc43FGSWOnV-55" style="edgeStyle=orthogonalEdgeStyle;rounded=0;orthogonalLoop=1;jettySize=auto;html=1;exitX=0.5;exitY=1;exitDx=0;exitDy=0;" edge="1" parent="1" source="3WN5ByAHuHc43FGSWOnV-22">
          <mxGeometry relative="1" as="geometry">
            <mxPoint x="200.47058823529414" y="920" as="targetPoint" />
          </mxGeometry>
        </mxCell>
        <mxCell id="3WN5ByAHuHc43FGSWOnV-56" value="YA" style="edgeLabel;html=1;align=center;verticalAlign=middle;resizable=0;points=[];" vertex="1" connectable="0" parent="3WN5ByAHuHc43FGSWOnV-55">
          <mxGeometry x="-0.0067" y="-2" relative="1" as="geometry">
            <mxPoint y="1" as="offset" />
          </mxGeometry>
        </mxCell>
        <mxCell id="3WN5ByAHuHc43FGSWOnV-22" value="Role Akun?" style="rhombus;whiteSpace=wrap;html=1;" vertex="1" parent="1">
          <mxGeometry x="147.5" y="740" width="105" height="110" as="geometry" />
        </mxCell>
        <mxCell id="3WN5ByAHuHc43FGSWOnV-32" style="edgeStyle=orthogonalEdgeStyle;rounded=0;orthogonalLoop=1;jettySize=auto;html=1;exitX=0.5;exitY=1;exitDx=0;exitDy=0;entryX=0.5;entryY=0;entryDx=0;entryDy=0;" edge="1" parent="1" source="3WN5ByAHuHc43FGSWOnV-28" target="3WN5ByAHuHc43FGSWOnV-31">
          <mxGeometry relative="1" as="geometry" />
        </mxCell>
        <mxCell id="3WN5ByAHuHc43FGSWOnV-28" value="Users?" style="rhombus;whiteSpace=wrap;html=1;" vertex="1" parent="1">
          <mxGeometry x="550" y="1000" width="105" height="110" as="geometry" />
        </mxCell>
        <mxCell id="3WN5ByAHuHc43FGSWOnV-35" style="edgeStyle=orthogonalEdgeStyle;rounded=0;orthogonalLoop=1;jettySize=auto;html=1;exitX=0.5;exitY=1;exitDx=0;exitDy=0;entryX=0.5;entryY=0;entryDx=0;entryDy=0;" edge="1" parent="1" source="3WN5ByAHuHc43FGSWOnV-31" target="3WN5ByAHuHc43FGSWOnV-33">
          <mxGeometry relative="1" as="geometry" />
        </mxCell>
        <mxCell id="3WN5ByAHuHc43FGSWOnV-31" value="Ke halaman Users" style="rounded=1;whiteSpace=wrap;html=1;" vertex="1" parent="1">
          <mxGeometry x="542.5" y="1210" width="120" height="60" as="geometry" />
        </mxCell>
        <mxCell id="3WN5ByAHuHc43FGSWOnV-37" style="edgeStyle=orthogonalEdgeStyle;rounded=0;orthogonalLoop=1;jettySize=auto;html=1;exitX=0.5;exitY=1;exitDx=0;exitDy=0;entryX=0.5;entryY=0;entryDx=0;entryDy=0;" edge="1" parent="1" source="3WN5ByAHuHc43FGSWOnV-33" target="3WN5ByAHuHc43FGSWOnV-36">
          <mxGeometry relative="1" as="geometry" />
        </mxCell>
        <mxCell id="3WN5ByAHuHc43FGSWOnV-33" value="Ajukan Surat" style="shape=parallelogram;html=1;strokeWidth=2;perimeter=parallelogramPerimeter;whiteSpace=wrap;rounded=1;arcSize=12;size=0.23;" vertex="1" parent="1">
          <mxGeometry x="537.5" y="1370" width="130" height="60" as="geometry" />
        </mxCell>
        <mxCell id="3WN5ByAHuHc43FGSWOnV-39" style="edgeStyle=orthogonalEdgeStyle;rounded=0;orthogonalLoop=1;jettySize=auto;html=1;exitX=0.5;exitY=1;exitDx=0;exitDy=0;" edge="1" parent="1" source="3WN5ByAHuHc43FGSWOnV-36" target="3WN5ByAHuHc43FGSWOnV-38">
          <mxGeometry relative="1" as="geometry" />
        </mxCell>
        <mxCell id="3WN5ByAHuHc43FGSWOnV-36" value="Riwayat Pengajuan" style="rounded=1;whiteSpace=wrap;html=1;" vertex="1" parent="1">
          <mxGeometry x="543" y="1500" width="120" height="60" as="geometry" />
        </mxCell>
        <mxCell id="3WN5ByAHuHc43FGSWOnV-87" style="edgeStyle=orthogonalEdgeStyle;rounded=0;orthogonalLoop=1;jettySize=auto;html=1;exitX=0.5;exitY=1;exitDx=0;exitDy=0;entryX=0.5;entryY=0;entryDx=0;entryDy=0;" edge="1" parent="1" source="3WN5ByAHuHc43FGSWOnV-38" target="3WN5ByAHuHc43FGSWOnV-85">
          <mxGeometry relative="1" as="geometry" />
        </mxCell>
        <mxCell id="3WN5ByAHuHc43FGSWOnV-38" value="Edit Profil" style="rounded=1;whiteSpace=wrap;html=1;" vertex="1" parent="1">
          <mxGeometry x="543" y="1640" width="120" height="60" as="geometry" />
        </mxCell>
        <mxCell id="3WN5ByAHuHc43FGSWOnV-46" style="edgeStyle=orthogonalEdgeStyle;rounded=0;orthogonalLoop=1;jettySize=auto;html=1;exitX=0.5;exitY=1;exitDx=0;exitDy=0;" edge="1" parent="1" source="3WN5ByAHuHc43FGSWOnV-44" target="3WN5ByAHuHc43FGSWOnV-45">
          <mxGeometry relative="1" as="geometry" />
        </mxCell>
        <mxCell id="3WN5ByAHuHc43FGSWOnV-44" value="Halaman Admin" style="rhombus;whiteSpace=wrap;html=1;" vertex="1" parent="1">
          <mxGeometry x="-172.5" y="740" width="105" height="110" as="geometry" />
        </mxCell>
        <mxCell id="3WN5ByAHuHc43FGSWOnV-48" style="edgeStyle=orthogonalEdgeStyle;rounded=0;orthogonalLoop=1;jettySize=auto;html=1;exitX=0.5;exitY=1;exitDx=0;exitDy=0;" edge="1" parent="1" source="3WN5ByAHuHc43FGSWOnV-45" target="3WN5ByAHuHc43FGSWOnV-47">
          <mxGeometry relative="1" as="geometry" />
        </mxCell>
        <mxCell id="3WN5ByAHuHc43FGSWOnV-45" value="Kelola Pengajuan" style="rounded=1;whiteSpace=wrap;html=1;" vertex="1" parent="1">
          <mxGeometry x="-180" y="920" width="120" height="60" as="geometry" />
        </mxCell>
        <mxCell id="3WN5ByAHuHc43FGSWOnV-50" style="edgeStyle=orthogonalEdgeStyle;rounded=0;orthogonalLoop=1;jettySize=auto;html=1;exitX=0.5;exitY=1;exitDx=0;exitDy=0;entryX=0.5;entryY=0;entryDx=0;entryDy=0;" edge="1" parent="1" source="3WN5ByAHuHc43FGSWOnV-47" target="3WN5ByAHuHc43FGSWOnV-49">
          <mxGeometry relative="1" as="geometry" />
        </mxCell>
        <mxCell id="3WN5ByAHuHc43FGSWOnV-47" value="Kelola Users" style="rounded=1;whiteSpace=wrap;html=1;" vertex="1" parent="1">
          <mxGeometry x="-180" y="1040" width="120" height="60" as="geometry" />
        </mxCell>
        <mxCell id="3WN5ByAHuHc43FGSWOnV-53" style="edgeStyle=orthogonalEdgeStyle;rounded=0;orthogonalLoop=1;jettySize=auto;html=1;exitX=0.5;exitY=1;exitDx=0;exitDy=0;" edge="1" parent="1" source="3WN5ByAHuHc43FGSWOnV-49" target="3WN5ByAHuHc43FGSWOnV-51">
          <mxGeometry relative="1" as="geometry" />
        </mxCell>
        <mxCell id="3WN5ByAHuHc43FGSWOnV-49" value="Kelola Layanan" style="rounded=1;whiteSpace=wrap;html=1;" vertex="1" parent="1">
          <mxGeometry x="-180" y="1160" width="120" height="60" as="geometry" />
        </mxCell>
        <mxCell id="3WN5ByAHuHc43FGSWOnV-54" style="edgeStyle=orthogonalEdgeStyle;rounded=0;orthogonalLoop=1;jettySize=auto;html=1;exitX=0.5;exitY=1;exitDx=0;exitDy=0;entryX=0.5;entryY=0;entryDx=0;entryDy=0;" edge="1" parent="1" source="3WN5ByAHuHc43FGSWOnV-51" target="3WN5ByAHuHc43FGSWOnV-52">
          <mxGeometry relative="1" as="geometry" />
        </mxCell>
        <mxCell id="3WN5ByAHuHc43FGSWOnV-51" value="kelola Informasi" style="rounded=1;whiteSpace=wrap;html=1;" vertex="1" parent="1">
          <mxGeometry x="-180" y="1280" width="120" height="60" as="geometry" />
        </mxCell>
        <mxCell id="3WN5ByAHuHc43FGSWOnV-81" style="edgeStyle=orthogonalEdgeStyle;rounded=0;orthogonalLoop=1;jettySize=auto;html=1;exitX=0.5;exitY=1;exitDx=0;exitDy=0;entryX=0;entryY=0.5;entryDx=0;entryDy=0;" edge="1" parent="1" source="3WN5ByAHuHc43FGSWOnV-52" target="3WN5ByAHuHc43FGSWOnV-79">
          <mxGeometry relative="1" as="geometry" />
        </mxCell>
        <mxCell id="3WN5ByAHuHc43FGSWOnV-52" value="Laporan &amp;amp; Export" style="rounded=1;whiteSpace=wrap;html=1;" vertex="1" parent="1">
          <mxGeometry x="-180" y="1400" width="120" height="60" as="geometry" />
        </mxCell>
        <mxCell id="3WN5ByAHuHc43FGSWOnV-60" style="edgeStyle=orthogonalEdgeStyle;rounded=0;orthogonalLoop=1;jettySize=auto;html=1;exitX=0.5;exitY=1;exitDx=0;exitDy=0;entryX=0.5;entryY=0;entryDx=0;entryDy=0;" edge="1" parent="1" source="3WN5ByAHuHc43FGSWOnV-58" target="3WN5ByAHuHc43FGSWOnV-59">
          <mxGeometry relative="1" as="geometry" />
        </mxCell>
        <mxCell id="3WN5ByAHuHc43FGSWOnV-58" value="RT" style="rhombus;whiteSpace=wrap;html=1;" vertex="1" parent="1">
          <mxGeometry x="147.5" y="920" width="105" height="80" as="geometry" />
        </mxCell>
        <mxCell id="3WN5ByAHuHc43FGSWOnV-63" style="edgeStyle=orthogonalEdgeStyle;rounded=0;orthogonalLoop=1;jettySize=auto;html=1;exitX=0.5;exitY=1;exitDx=0;exitDy=0;entryX=0.5;entryY=0;entryDx=0;entryDy=0;" edge="1" parent="1" source="3WN5ByAHuHc43FGSWOnV-59" target="3WN5ByAHuHc43FGSWOnV-61">
          <mxGeometry relative="1" as="geometry" />
        </mxCell>
        <mxCell id="3WN5ByAHuHc43FGSWOnV-59" value="Halaman RT" style="rounded=1;whiteSpace=wrap;html=1;" vertex="1" parent="1">
          <mxGeometry x="140" y="1040" width="120" height="60" as="geometry" />
        </mxCell>
        <mxCell id="3WN5ByAHuHc43FGSWOnV-66" style="edgeStyle=orthogonalEdgeStyle;rounded=0;orthogonalLoop=1;jettySize=auto;html=1;exitX=0.5;exitY=1;exitDx=0;exitDy=0;entryX=0.5;entryY=0;entryDx=0;entryDy=0;" edge="1" parent="1" source="3WN5ByAHuHc43FGSWOnV-61" target="3WN5ByAHuHc43FGSWOnV-65">
          <mxGeometry relative="1" as="geometry" />
        </mxCell>
        <mxCell id="3WN5ByAHuHc43FGSWOnV-61" value="Buat Laporan" style="shape=parallelogram;perimeter=parallelogramPerimeter;whiteSpace=wrap;html=1;fixedSize=1;" vertex="1" parent="1">
          <mxGeometry x="130" y="1160" width="140" height="60" as="geometry" />
        </mxCell>
        <mxCell id="3WN5ByAHuHc43FGSWOnV-67" style="edgeStyle=orthogonalEdgeStyle;rounded=0;orthogonalLoop=1;jettySize=auto;html=1;exitX=1;exitY=0.5;exitDx=0;exitDy=0;entryX=0;entryY=0.5;entryDx=0;entryDy=0;" edge="1" parent="1" source="3WN5ByAHuHc43FGSWOnV-65" target="3WN5ByAHuHc43FGSWOnV-68">
          <mxGeometry relative="1" as="geometry">
            <mxPoint x="350" y="1320" as="targetPoint" />
          </mxGeometry>
        </mxCell>
        <mxCell id="3WN5ByAHuHc43FGSWOnV-69" style="edgeStyle=orthogonalEdgeStyle;rounded=0;orthogonalLoop=1;jettySize=auto;html=1;exitX=0.5;exitY=1;exitDx=0;exitDy=0;entryX=0.5;entryY=0;entryDx=0;entryDy=0;" edge="1" parent="1" source="3WN5ByAHuHc43FGSWOnV-65" target="3WN5ByAHuHc43FGSWOnV-70">
          <mxGeometry relative="1" as="geometry">
            <mxPoint x="199.69230769230762" y="1400" as="targetPoint" />
            <Array as="points" />
          </mxGeometry>
        </mxCell>
        <mxCell id="3WN5ByAHuHc43FGSWOnV-65" value="Isi Semua?" style="rhombus;whiteSpace=wrap;html=1;" vertex="1" parent="1">
          <mxGeometry x="147.5" y="1260" width="105" height="120" as="geometry" />
        </mxCell>
        <mxCell id="3WN5ByAHuHc43FGSWOnV-68" value="Tidak" style="shape=parallelogram;perimeter=parallelogramPerimeter;whiteSpace=wrap;html=1;fixedSize=1;" vertex="1" parent="1">
          <mxGeometry x="350" y="1290" width="120" height="60" as="geometry" />
        </mxCell>
        <mxCell id="3WN5ByAHuHc43FGSWOnV-77" style="edgeStyle=orthogonalEdgeStyle;rounded=0;orthogonalLoop=1;jettySize=auto;html=1;exitX=0.5;exitY=1;exitDx=0;exitDy=0;" edge="1" parent="1" source="3WN5ByAHuHc43FGSWOnV-70" target="3WN5ByAHuHc43FGSWOnV-76">
          <mxGeometry relative="1" as="geometry" />
        </mxCell>
        <mxCell id="3WN5ByAHuHc43FGSWOnV-70" value="Berhasil Terkirim?" style="rhombus;whiteSpace=wrap;html=1;" vertex="1" parent="1">
          <mxGeometry x="147.5" y="1420" width="105" height="120" as="geometry" />
        </mxCell>
        <mxCell id="3WN5ByAHuHc43FGSWOnV-73" style="edgeStyle=orthogonalEdgeStyle;rounded=0;orthogonalLoop=1;jettySize=auto;html=1;exitX=1;exitY=0.5;exitDx=0;exitDy=0;entryX=1;entryY=0.5;entryDx=0;entryDy=0;" edge="1" parent="1" source="3WN5ByAHuHc43FGSWOnV-71" target="3WN5ByAHuHc43FGSWOnV-61">
          <mxGeometry relative="1" as="geometry">
            <Array as="points">
              <mxPoint x="520" y="1480" />
              <mxPoint x="520" y="1190" />
            </Array>
          </mxGeometry>
        </mxCell>
        <mxCell id="3WN5ByAHuHc43FGSWOnV-71" value="Tidak" style="shape=parallelogram;perimeter=parallelogramPerimeter;whiteSpace=wrap;html=1;fixedSize=1;" vertex="1" parent="1">
          <mxGeometry x="350" y="1450" width="120" height="60" as="geometry" />
        </mxCell>
        <mxCell id="3WN5ByAHuHc43FGSWOnV-72" value="" style="endArrow=none;html=1;rounded=0;exitX=1;exitY=0.5;exitDx=0;exitDy=0;entryX=0;entryY=0.5;entryDx=0;entryDy=0;" edge="1" parent="1" source="3WN5ByAHuHc43FGSWOnV-70" target="3WN5ByAHuHc43FGSWOnV-71">
          <mxGeometry width="50" height="50" relative="1" as="geometry">
            <mxPoint x="390" y="1480" as="sourcePoint" />
            <mxPoint x="440" y="1430" as="targetPoint" />
          </mxGeometry>
        </mxCell>
        <mxCell id="3WN5ByAHuHc43FGSWOnV-75" value="" style="endArrow=none;html=1;rounded=0;exitX=1;exitY=0.5;exitDx=0;exitDy=0;" edge="1" parent="1" source="3WN5ByAHuHc43FGSWOnV-68">
          <mxGeometry width="50" height="50" relative="1" as="geometry">
            <mxPoint x="390" y="1480" as="sourcePoint" />
            <mxPoint x="520" y="1320" as="targetPoint" />
          </mxGeometry>
        </mxCell>
        <mxCell id="3WN5ByAHuHc43FGSWOnV-76" value="Terkirim" style="rounded=1;whiteSpace=wrap;html=1;" vertex="1" parent="1">
          <mxGeometry x="140" y="1640" width="120" height="60" as="geometry" />
        </mxCell>
        <mxCell id="3WN5ByAHuHc43FGSWOnV-79" value="Selesai" style="rounded=1;whiteSpace=wrap;html=1;" vertex="1" parent="1">
          <mxGeometry x="140" y="1810" width="120" height="60" as="geometry" />
        </mxCell>
        <mxCell id="3WN5ByAHuHc43FGSWOnV-82" value="" style="endArrow=none;html=1;rounded=0;exitX=0.5;exitY=1;exitDx=0;exitDy=0;entryX=0.5;entryY=0;entryDx=0;entryDy=0;" edge="1" parent="1" source="3WN5ByAHuHc43FGSWOnV-76" target="3WN5ByAHuHc43FGSWOnV-79">
          <mxGeometry width="50" height="50" relative="1" as="geometry">
            <mxPoint x="260" y="1680" as="sourcePoint" />
            <mxPoint x="310" y="1630" as="targetPoint" />
          </mxGeometry>
        </mxCell>
        <mxCell id="3WN5ByAHuHc43FGSWOnV-90" style="edgeStyle=orthogonalEdgeStyle;rounded=0;orthogonalLoop=1;jettySize=auto;html=1;exitX=1;exitY=0.5;exitDx=0;exitDy=0;entryX=0;entryY=0.5;entryDx=0;entryDy=0;" edge="1" parent="1" source="3WN5ByAHuHc43FGSWOnV-85" target="3WN5ByAHuHc43FGSWOnV-89">
          <mxGeometry relative="1" as="geometry" />
        </mxCell>
        <mxCell id="3WN5ByAHuHc43FGSWOnV-93" style="edgeStyle=orthogonalEdgeStyle;rounded=0;orthogonalLoop=1;jettySize=auto;html=1;exitX=0.5;exitY=1;exitDx=0;exitDy=0;" edge="1" parent="1" source="3WN5ByAHuHc43FGSWOnV-85" target="3WN5ByAHuHc43FGSWOnV-92">
          <mxGeometry relative="1" as="geometry" />
        </mxCell>
        <mxCell id="3WN5ByAHuHc43FGSWOnV-85" value="Update Status?" style="rhombus;whiteSpace=wrap;html=1;" vertex="1" parent="1">
          <mxGeometry x="550" y="1760" width="105" height="100" as="geometry" />
        </mxCell>
        <mxCell id="3WN5ByAHuHc43FGSWOnV-91" style="edgeStyle=orthogonalEdgeStyle;rounded=0;orthogonalLoop=1;jettySize=auto;html=1;exitX=0.5;exitY=0;exitDx=0;exitDy=0;entryX=1;entryY=0.5;entryDx=0;entryDy=0;" edge="1" parent="1" source="3WN5ByAHuHc43FGSWOnV-89" target="3WN5ByAHuHc43FGSWOnV-38">
          <mxGeometry relative="1" as="geometry" />
        </mxCell>
        <mxCell id="3WN5ByAHuHc43FGSWOnV-89" value="Tidak" style="shape=parallelogram;html=1;strokeWidth=2;perimeter=parallelogramPerimeter;whiteSpace=wrap;rounded=1;arcSize=12;size=0.23;" vertex="1" parent="1">
          <mxGeometry x="750" y="1780" width="100" height="60" as="geometry" />
        </mxCell>
        <mxCell id="3WN5ByAHuHc43FGSWOnV-95" style="edgeStyle=orthogonalEdgeStyle;rounded=0;orthogonalLoop=1;jettySize=auto;html=1;exitX=0.5;exitY=1;exitDx=0;exitDy=0;" edge="1" parent="1" source="3WN5ByAHuHc43FGSWOnV-92" target="3WN5ByAHuHc43FGSWOnV-94">
          <mxGeometry relative="1" as="geometry" />
        </mxCell>
        <mxCell id="3WN5ByAHuHc43FGSWOnV-92" value="YA" style="shape=parallelogram;html=1;strokeWidth=2;perimeter=parallelogramPerimeter;whiteSpace=wrap;rounded=1;arcSize=12;size=0.23;" vertex="1" parent="1">
          <mxGeometry x="550" y="1950" width="103" height="60" as="geometry" />
        </mxCell>
        <mxCell id="3WN5ByAHuHc43FGSWOnV-96" style="edgeStyle=orthogonalEdgeStyle;rounded=0;orthogonalLoop=1;jettySize=auto;html=1;exitX=0;exitY=0.5;exitDx=0;exitDy=0;entryX=1;entryY=0.5;entryDx=0;entryDy=0;" edge="1" parent="1" source="3WN5ByAHuHc43FGSWOnV-94" target="3WN5ByAHuHc43FGSWOnV-79">
          <mxGeometry relative="1" as="geometry" />
        </mxCell>
        <mxCell id="3WN5ByAHuHc43FGSWOnV-94" value="Update Status" style="rounded=1;whiteSpace=wrap;html=1;" vertex="1" parent="1">
          <mxGeometry x="542" y="2090" width="120" height="60" as="geometry" />
        </mxCell>
      </root>
    </mxGraphModel>
  </diagram>
</mxfile>
